<?xml version="1.0" encoding="UTF-8"?><svg id="Layer_1" xmlns="http://www.w3.org/2000/svg" viewBox="0 0 1080 1080"><defs><style>.cls-1{fill:#4addff;}</style></defs><path class="cls-1" d="M523.79,208.54l-38.28,38.28c-4.31,4.31-6.73,10.15-6.73,16.25v554.74c0,6.09,2.42,11.94,6.73,16.25l38.28,38.28c8.97,8.97,23.52,8.97,32.49,0l38.28-38.28c4.31-4.31,6.73-10.15,6.73-16.25V263.06c0-6.09-2.42-11.94-6.73-16.25l-38.28-38.28c-8.97-8.97-23.52-8.97-32.49,0Z"/><path class="cls-1" d="M213.79,364.4l-38.28,38.28c-4.31,4.31-6.73,10.15-6.73,16.25v243.01c0,6.09,2.42,11.94,6.73,16.25l38.28,38.28c8.97,8.97,23.52,8.97,32.49,0l38.28-38.28c4.31-4.31,6.73-10.15,6.73-16.25v-243.01c0-6.09-2.42-11.94-6.73-16.25l-38.28-38.28c-8.97-8.97-23.52-8.97-32.49,0Z"/><path class="cls-1" d="M678.79,364.4l-38.28,38.28c-4.31,4.31-6.73,10.15-6.73,16.25v243.01c0,6.09,2.42,11.94,6.73,16.25l38.28,38.28c8.97,8.97,23.52,8.97,32.49,0l38.28-38.28c4.31-4.31,6.73-10.15,6.73-16.25v-243.01c0-6.09-2.42-11.94-6.73-16.25l-38.28-38.28c-8.97-8.97-23.52-8.97-32.49,0Z"/><path class="cls-1" d="M833.78,424.94l-38.28,38.28c-4.31,4.31-6.73,10.15-6.73,16.25v121.94c0,6.09,2.42,11.94,6.73,16.25l38.28,38.28c8.97,8.97,23.52,8.97,32.49,0l38.28-38.28c4.31-4.31,6.73-10.15,6.73-16.25v-121.94c0-6.09-2.42-11.94-6.73-16.25l-38.28-38.28c-8.97-8.97-23.52-8.97-32.49,0Z"/><path class="cls-1" d="M368.79,290.82l-38.28,38.28c-4.31,4.31-6.73,10.15-6.73,16.25v390.17c0,6.09,2.42,11.94,6.73,16.25l38.28,38.28c8.97,8.97,23.52,8.97,32.49,0l38.28-38.28c4.31-4.31,6.73-10.15,6.73-16.25v-390.17c0-6.09-2.42-11.94-6.73-16.25l-38.28-38.28c-8.97-8.97-23.52-8.97-32.49,0Z"/></svg>