<?xml version="1.0" encoding="UTF-8"?><svg id="Layer_1" xmlns="http://www.w3.org/2000/svg" xmlns:xlink="http://www.w3.org/1999/xlink" viewBox="0 0 1920 337.87"><defs><style>.cls-1{fill:url(#linear-gradient-3);}.cls-2{fill:url(#linear-gradient-2);}.cls-3{fill:url(#linear-gradient);}.cls-4{fill:#001f3e;}</style><linearGradient id="linear-gradient" x1="-1278.26" y1="1544.2" x2="-1270.27" y2="1211.09" gradientTransform="translate(2019.02 100.28) rotate(45)" gradientUnits="userSpaceOnUse"><stop offset="0" stop-color="#ff4220" stop-opacity="0"/><stop offset=".1" stop-color="#ff4220" stop-opacity=".19"/><stop offset=".22" stop-color="#ff4220" stop-opacity=".4"/><stop offset=".35" stop-color="#ff4220" stop-opacity=".58"/><stop offset=".47" stop-color="#ff4220" stop-opacity=".73"/><stop offset=".59" stop-color="#ff4220" stop-opacity=".85"/><stop offset=".71" stop-color="#ff4220" stop-opacity=".93"/><stop offset=".83" stop-color="#ff4220" stop-opacity=".98"/><stop offset=".94" stop-color="#ff4220"/></linearGradient><linearGradient id="linear-gradient-2" x1="-1155.71" y1="1421.56" x2="-1147.72" y2="1088.45" xlink:href="#linear-gradient"/><linearGradient id="linear-gradient-3" x1="-1033.17" y1="1299.01" x2="-1025.18" y2="965.91" xlink:href="#linear-gradient"/></defs><path class="cls-3" d="M246.72,47.52h-54.15c-6.1,0-11.94,2.42-16.25,6.73L24.51,206.05c-4.31,4.31-6.73,10.16-6.73,16.25v54.15c0,12.69,10.29,22.98,22.98,22.98h54.15c6.1,0,11.94-2.42,16.25-6.73l151.8-151.8c4.31-4.31,6.73-10.16,6.73-16.25v-54.15c0-12.69-10.29-22.98-22.98-22.98Z"/><path class="cls-2" d="M420.09,47.46h-54.15c-6.1,0-11.94,2.42-16.25,6.73l-151.8,151.8c-4.31,4.31-6.73,10.16-6.73,16.25v54.15c0,12.69,10.29,22.98,22.98,22.98h54.15c6.1,0,11.94-2.42,16.25-6.73l151.8-151.8c4.31-4.31,6.73-10.16,6.73-16.25v-54.15c0-12.69-10.29-22.98-22.98-22.98Z"/><path class="cls-1" d="M593.39,47.46h-54.15c-6.1,0-11.94,2.42-16.25,6.73l-151.8,151.8c-4.31,4.31-6.73,10.16-6.73,16.25v54.15c0,12.69,10.29,22.98,22.98,22.98h54.15c6.1,0,11.94-2.42,16.25-6.73l151.8-151.8c4.31-4.31,6.73-10.16,6.73-16.25v-54.15c0-12.69-10.29-22.98-22.98-22.98Z"/><path class="cls-4" d="M980.29,161.51v68.7h-37.66v-62.33c0-20.16-8.75-37.13-29.44-37.13s-29.18,16.71-29.18,36.6v62.86h-37.66v-62.6c0-20.16-8.75-36.87-29.18-36.87s-29.18,16.98-29.18,36.87v62.6h-37.67v-68.7c0-36.6,21.49-67.37,63.93-67.37,25.2,0,43.5,11.14,51.19,29.18,8.22-18.04,26.79-29.18,50.4-29.18,42.71,0,64.45,30.77,64.45,67.37Z"/><path class="cls-4" d="M1010.46,164.16c0-37.93,31.03-69.23,71.09-69.23s71.35,31.56,71.35,69.23-31.03,69.49-71.35,69.49-71.09-31.3-71.09-69.49ZM1115.24,164.43c0-18.57-14.32-33.95-33.69-33.95s-33.42,15.38-33.42,33.95,14.06,33.95,33.42,33.95,33.69-15.38,33.69-33.95Z"/><path class="cls-4" d="M1168.35,98.91h40.05l34.48,97.88,34.22-97.88h40.05l-40.58,109.55c-6.37,16.98-17.77,25.46-33.95,25.46s-28.12-8.49-34.22-25.46l-40.05-109.55ZM1242.89,197.85h-.27.27Z"/><path class="cls-4" d="M1333.93,164.16c0-37.67,30.77-69.23,71.09-69.23s71.35,29.71,71.35,69.23v66.05h-35.81v-15.38c-9.28,11.67-23.61,18.83-41.64,18.83-38.2,0-64.99-31.3-64.99-69.49ZM1438.71,164.43c0-18.57-14.32-33.95-33.69-33.95s-33.42,15.38-33.42,33.95,14.06,33.95,33.42,33.95,33.69-15.38,33.69-33.95Z"/><path class="cls-4" d="M1513.85,164.69V38.44h37.67v68.96c9.81-7.43,22.28-12.2,35.54-12.2,40.85,0,68.96,28.65,68.96,69.49,0,37.93-30.5,69.23-71.09,69.23s-71.09-29.44-71.09-69.23ZM1618.35,164.69c0-18.57-14.06-33.95-33.42-33.95s-33.42,15.38-33.42,33.95,14.06,33.69,33.42,33.69,33.42-15.12,33.42-33.69Z"/><path class="cls-4" d="M1731.03,38.44v191.77h-37.66V38.44h37.66Z"/><path class="cls-4" d="M1768.27,163.37c0-37.93,27.59-69.23,68.17-69.23s65.78,30.77,65.78,66.58v11.14h-97.61c2.65,17.51,16.18,29.18,35.01,29.18,14.32,0,26.26-6.9,32.36-19.1l28.91,14.59c-11.41,23.61-33.16,37.13-61.01,37.13-40.85,0-71.62-28.38-71.62-70.29ZM1864.82,150.9c-1.59-13.53-12.73-23.87-28.65-23.87s-27.32,10.61-29.97,23.87h58.62Z"/></svg>