<?xml version="1.0" encoding="UTF-8"?><svg id="Layer_1" xmlns="http://www.w3.org/2000/svg" xmlns:xlink="http://www.w3.org/1999/xlink" viewBox="0 0 702.24 337.87"><defs><style>.cls-1{fill:url(#linear-gradient-3);}.cls-2{fill:url(#linear-gradient-2);}.cls-3{fill:url(#linear-gradient);}</style><linearGradient id="linear-gradient" x1="-1142.29" y1="-192.99" x2="-1134.3" y2="-526.1" gradientTransform="translate(728.55 1228) rotate(45)" gradientUnits="userSpaceOnUse"><stop offset="0" stop-color="#fff" stop-opacity="0"/><stop offset=".17" stop-color="#fff" stop-opacity=".26"/><stop offset=".33" stop-color="#fff" stop-opacity=".49"/><stop offset=".49" stop-color="#fff" stop-opacity=".67"/><stop offset=".64" stop-color="#fff" stop-opacity=".81"/><stop offset=".78" stop-color="#fff" stop-opacity=".92"/><stop offset=".9" stop-color="#fff" stop-opacity=".98"/><stop offset="1" stop-color="#fff"/></linearGradient><linearGradient id="linear-gradient-2" x1="-1019.75" y1="-315.63" x2="-1011.76" y2="-648.74" xlink:href="#linear-gradient"/><linearGradient id="linear-gradient-3" x1="-897.2" y1="-438.17" x2="-889.21" y2="-771.28" xlink:href="#linear-gradient"/></defs><path class="cls-3" d="M280.76,43.01h-54.15c-6.1,0-11.94,2.42-16.25,6.73L58.56,201.55c-4.31,4.31-6.73,10.16-6.73,16.25v54.15c0,12.69,10.29,22.98,22.98,22.98h54.15c6.1,0,11.94-2.42,16.25-6.73l151.8-151.8c4.31-4.31,6.73-10.16,6.73-16.25v-54.15c0-12.69-10.29-22.98-22.98-22.98Z"/><path class="cls-2" d="M454.13,42.95h-54.15c-6.1,0-11.94,2.42-16.25,6.73l-151.8,151.8c-4.31,4.31-6.73,10.16-6.73,16.25v54.15c0,12.69,10.29,22.98,22.98,22.98h54.15c6.1,0,11.94-2.42,16.25-6.73l151.8-151.8c4.31-4.31,6.73-10.16,6.73-16.25v-54.15c0-12.69-10.29-22.98-22.98-22.98Z"/><path class="cls-1" d="M627.43,42.95h-54.15c-6.1,0-11.94,2.42-16.25,6.73l-151.8,151.8c-4.31,4.31-6.73,10.16-6.73,16.25v54.15c0,12.69,10.29,22.98,22.98,22.98h54.15c6.1,0,11.94-2.42,16.25-6.73l151.8-151.8c4.31-4.31,6.73-10.16,6.73-16.25v-54.15c0-12.69-10.29-22.98-22.98-22.98Z"/></svg>