<?xml version="1.0" encoding="UTF-8"?><svg id="Layer_1" xmlns="http://www.w3.org/2000/svg" xmlns:xlink="http://www.w3.org/1999/xlink" viewBox="0 0 702.24 337.87"><defs><style>.cls-1{fill:url(#linear-gradient-3);}.cls-2{fill:url(#linear-gradient-2);}.cls-3{fill:url(#linear-gradient);}</style><linearGradient id="linear-gradient" x1="-1496.81" y1="-46.14" x2="-1488.82" y2="-379.25" gradientTransform="translate(1083.07 1374.85) rotate(45)" gradientUnits="userSpaceOnUse"><stop offset="0" stop-color="#ff4220" stop-opacity="0"/><stop offset=".1" stop-color="#ff4220" stop-opacity=".19"/><stop offset=".22" stop-color="#ff4220" stop-opacity=".4"/><stop offset=".35" stop-color="#ff4220" stop-opacity=".58"/><stop offset=".47" stop-color="#ff4220" stop-opacity=".73"/><stop offset=".59" stop-color="#ff4220" stop-opacity=".85"/><stop offset=".71" stop-color="#ff4220" stop-opacity=".93"/><stop offset=".83" stop-color="#ff4220" stop-opacity=".98"/><stop offset=".94" stop-color="#ff4220"/></linearGradient><linearGradient id="linear-gradient-2" x1="-1374.27" y1="-168.78" x2="-1366.28" y2="-501.89" xlink:href="#linear-gradient"/><linearGradient id="linear-gradient-3" x1="-1251.72" y1="-291.33" x2="-1243.73" y2="-624.43" xlink:href="#linear-gradient"/></defs><path class="cls-3" d="M280.76,43.01h-54.15c-6.1,0-11.94,2.42-16.25,6.73L58.56,201.55c-4.31,4.31-6.73,10.16-6.73,16.25v54.15c0,12.69,10.29,22.98,22.98,22.98h54.15c6.1,0,11.94-2.42,16.25-6.73l151.8-151.8c4.31-4.31,6.73-10.16,6.73-16.25v-54.15c0-12.69-10.29-22.98-22.98-22.98Z"/><path class="cls-2" d="M454.13,42.95h-54.15c-6.1,0-11.94,2.42-16.25,6.73l-151.8,151.8c-4.31,4.31-6.73,10.16-6.73,16.25v54.15c0,12.69,10.29,22.98,22.98,22.98h54.15c6.1,0,11.94-2.42,16.25-6.73l151.8-151.8c4.31-4.31,6.73-10.16,6.73-16.25v-54.15c0-12.69-10.29-22.98-22.98-22.98Z"/><path class="cls-1" d="M627.43,42.95h-54.15c-6.1,0-11.94,2.42-16.25,6.73l-151.8,151.8c-4.31,4.31-6.73,10.16-6.73,16.25v54.15c0,12.69,10.29,22.98,22.98,22.98h54.15c6.1,0,11.94-2.42,16.25-6.73l151.8-151.8c4.31-4.31,6.73-10.16,6.73-16.25v-54.15c0-12.69-10.29-22.98-22.98-22.98Z"/></svg>